<mxfile host="app.diagrams.net" modified="2024-04-02T13:31:45.754Z" agent="Mozilla/5.0 (Windows NT 10.0; Win64; x64) AppleWebKit/537.36 (KHTML, like Gecko) Chrome/122.0.0.0 Safari/537.36" etag="VR34IKaYmP82w3EuVqtV" version="24.2.1" type="google">
  <diagram name="PÃ¡gina-1" id="bLbBAbPc-ef8ibbhLxyA">
    <mxGraphModel grid="1" page="1" gridSize="10" guides="1" tooltips="1" connect="1" arrows="1" fold="1" pageScale="1" pageWidth="827" pageHeight="1169" math="0" shadow="0">
      <root>
        <mxCell id="0" />
        <mxCell id="1" parent="0" />
        <mxCell id="VwYss1m0N9UJA2sbbODR-1" value="Carro" style="swimlane;fontStyle=1;align=center;verticalAlign=top;childLayout=stackLayout;horizontal=1;startSize=26;horizontalStack=0;resizeParent=1;resizeParentMax=0;resizeLast=0;collapsible=1;marginBottom=0;whiteSpace=wrap;html=1;labelBackgroundColor=none;" vertex="1" parent="1">
          <mxGeometry x="-150" y="40" width="250" height="170" as="geometry" />
        </mxCell>
        <mxCell id="VwYss1m0N9UJA2sbbODR-2" value="-encendido:boolean&lt;div&gt;-velocidad:double&lt;/div&gt;&lt;div&gt;&lt;br&gt;&lt;/div&gt;" style="text;strokeColor=none;fillColor=none;align=left;verticalAlign=top;spacingLeft=4;spacingRight=4;overflow=hidden;rotatable=0;points=[[0,0.5],[1,0.5]];portConstraint=eastwest;whiteSpace=wrap;html=1;labelBackgroundColor=none;" vertex="1" parent="VwYss1m0N9UJA2sbbODR-1">
          <mxGeometry y="26" width="250" height="44" as="geometry" />
        </mxCell>
        <mxCell id="VwYss1m0N9UJA2sbbODR-3" value="" style="line;strokeWidth=1;fillColor=none;align=left;verticalAlign=middle;spacingTop=-1;spacingLeft=3;spacingRight=3;rotatable=0;labelPosition=right;points=[];portConstraint=eastwest;labelBackgroundColor=none;" vertex="1" parent="VwYss1m0N9UJA2sbbODR-1">
          <mxGeometry y="70" width="250" height="8" as="geometry" />
        </mxCell>
        <mxCell id="VwYss1m0N9UJA2sbbODR-4" value="+ Carro(encendido:boolean,&amp;nbsp;&lt;span style=&quot;background-color: initial;&quot;&gt;velocidad:float&lt;/span&gt;&lt;span style=&quot;background-color: initial;&quot;&gt;)&lt;/span&gt;&lt;div&gt;+encender()&lt;/div&gt;&lt;div&gt;+apagado()&lt;/div&gt;&lt;div&gt;+acelerar():float&lt;/div&gt;&lt;div&gt;+frenar()&lt;/div&gt;&lt;div&gt;&lt;br&gt;&lt;/div&gt;&lt;div&gt;&lt;br&gt;&lt;/div&gt;&lt;div&gt;&lt;br&gt;&lt;/div&gt;" style="text;strokeColor=none;fillColor=none;align=left;verticalAlign=top;spacingLeft=4;spacingRight=4;overflow=hidden;rotatable=0;points=[[0,0.5],[1,0.5]];portConstraint=eastwest;whiteSpace=wrap;html=1;labelBackgroundColor=none;" vertex="1" parent="VwYss1m0N9UJA2sbbODR-1">
          <mxGeometry y="78" width="250" height="92" as="geometry" />
        </mxCell>
        <mxCell id="VwYss1m0N9UJA2sbbODR-5" value="&lt;div&gt;&amp;lt;&amp;lt;abstrac&amp;gt;&amp;gt;&lt;/div&gt;Llantas" style="swimlane;fontStyle=1;align=center;verticalAlign=top;childLayout=stackLayout;horizontal=1;startSize=40;horizontalStack=0;resizeParent=1;resizeParentMax=0;resizeLast=0;collapsible=1;marginBottom=0;whiteSpace=wrap;html=1;labelBackgroundColor=none;" vertex="1" parent="1">
          <mxGeometry x="230" y="230" width="170" height="48" as="geometry">
            <mxRectangle x="230" y="240" width="110" height="40" as="alternateBounds" />
          </mxGeometry>
        </mxCell>
        <mxCell id="VwYss1m0N9UJA2sbbODR-7" value="" style="line;strokeWidth=1;fillColor=none;align=left;verticalAlign=middle;spacingTop=-1;spacingLeft=3;spacingRight=3;rotatable=0;labelPosition=right;points=[];portConstraint=eastwest;labelBackgroundColor=none;" vertex="1" parent="VwYss1m0N9UJA2sbbODR-5">
          <mxGeometry y="40" width="170" height="8" as="geometry" />
        </mxCell>
        <mxCell id="VwYss1m0N9UJA2sbbODR-9" value="LlantasBonitas" style="swimlane;fontStyle=1;align=center;verticalAlign=top;childLayout=stackLayout;horizontal=1;startSize=26;horizontalStack=0;resizeParent=1;resizeParentMax=0;resizeLast=0;collapsible=1;marginBottom=0;whiteSpace=wrap;html=1;labelBackgroundColor=none;" vertex="1" parent="1">
          <mxGeometry x="20" y="490" width="160" height="60" as="geometry" />
        </mxCell>
        <mxCell id="VwYss1m0N9UJA2sbbODR-10" value="+ limite: int" style="text;strokeColor=none;fillColor=none;align=left;verticalAlign=top;spacingLeft=4;spacingRight=4;overflow=hidden;rotatable=0;points=[[0,0.5],[1,0.5]];portConstraint=eastwest;whiteSpace=wrap;html=1;labelBackgroundColor=none;" vertex="1" parent="VwYss1m0N9UJA2sbbODR-9">
          <mxGeometry y="26" width="160" height="26" as="geometry" />
        </mxCell>
        <mxCell id="VwYss1m0N9UJA2sbbODR-11" value="" style="line;strokeWidth=1;fillColor=none;align=left;verticalAlign=middle;spacingTop=-1;spacingLeft=3;spacingRight=3;rotatable=0;labelPosition=right;points=[];portConstraint=eastwest;labelBackgroundColor=none;" vertex="1" parent="VwYss1m0N9UJA2sbbODR-9">
          <mxGeometry y="52" width="160" height="8" as="geometry" />
        </mxCell>
        <mxCell id="VwYss1m0N9UJA2sbbODR-13" value="LlantasBaratas&amp;nbsp;" style="swimlane;fontStyle=1;align=center;verticalAlign=top;childLayout=stackLayout;horizontal=1;startSize=26;horizontalStack=0;resizeParent=1;resizeParentMax=0;resizeLast=0;collapsible=1;marginBottom=0;whiteSpace=wrap;html=1;labelBackgroundColor=none;" vertex="1" parent="1">
          <mxGeometry x="490" y="490" width="160" height="60" as="geometry" />
        </mxCell>
        <mxCell id="VwYss1m0N9UJA2sbbODR-14" value="+ limite: int" style="text;strokeColor=none;fillColor=none;align=left;verticalAlign=top;spacingLeft=4;spacingRight=4;overflow=hidden;rotatable=0;points=[[0,0.5],[1,0.5]];portConstraint=eastwest;whiteSpace=wrap;html=1;labelBackgroundColor=none;" vertex="1" parent="VwYss1m0N9UJA2sbbODR-13">
          <mxGeometry y="26" width="160" height="26" as="geometry" />
        </mxCell>
        <mxCell id="VwYss1m0N9UJA2sbbODR-15" value="" style="line;strokeWidth=1;fillColor=none;align=left;verticalAlign=middle;spacingTop=-1;spacingLeft=3;spacingRight=3;rotatable=0;labelPosition=right;points=[];portConstraint=eastwest;labelBackgroundColor=none;" vertex="1" parent="VwYss1m0N9UJA2sbbODR-13">
          <mxGeometry y="52" width="160" height="8" as="geometry" />
        </mxCell>
        <mxCell id="VwYss1m0N9UJA2sbbODR-17" value="LlantasBuenas" style="swimlane;fontStyle=1;align=center;verticalAlign=top;childLayout=stackLayout;horizontal=1;startSize=26;horizontalStack=0;resizeParent=1;resizeParentMax=0;resizeLast=0;collapsible=1;marginBottom=0;whiteSpace=wrap;html=1;labelBackgroundColor=none;" vertex="1" parent="1">
          <mxGeometry x="240" y="490" width="160" height="60" as="geometry" />
        </mxCell>
        <mxCell id="VwYss1m0N9UJA2sbbODR-18" value="+ limite: int" style="text;strokeColor=none;fillColor=none;align=left;verticalAlign=top;spacingLeft=4;spacingRight=4;overflow=hidden;rotatable=0;points=[[0,0.5],[1,0.5]];portConstraint=eastwest;whiteSpace=wrap;html=1;labelBackgroundColor=none;" vertex="1" parent="VwYss1m0N9UJA2sbbODR-17">
          <mxGeometry y="26" width="160" height="26" as="geometry" />
        </mxCell>
        <mxCell id="VwYss1m0N9UJA2sbbODR-19" value="" style="line;strokeWidth=1;fillColor=none;align=left;verticalAlign=middle;spacingTop=-1;spacingLeft=3;spacingRight=3;rotatable=0;labelPosition=right;points=[];portConstraint=eastwest;labelBackgroundColor=none;" vertex="1" parent="VwYss1m0N9UJA2sbbODR-17">
          <mxGeometry y="52" width="160" height="8" as="geometry" />
        </mxCell>
        <mxCell id="VwYss1m0N9UJA2sbbODR-21" value="&lt;div&gt;&amp;lt;&amp;lt;abstract&amp;gt;&amp;gt;&lt;/div&gt;Motor" style="swimlane;fontStyle=1;align=center;verticalAlign=top;childLayout=stackLayout;horizontal=1;startSize=40;horizontalStack=0;resizeParent=1;resizeParentMax=0;resizeLast=0;collapsible=1;marginBottom=0;whiteSpace=wrap;html=1;labelBackgroundColor=none;" vertex="1" parent="1">
          <mxGeometry x="-397" y="230" width="160" height="130" as="geometry" />
        </mxCell>
        <mxCell id="VwYss1m0N9UJA2sbbODR-22" value="- encendido:boolean" style="text;strokeColor=none;fillColor=none;align=left;verticalAlign=top;spacingLeft=4;spacingRight=4;overflow=hidden;rotatable=0;points=[[0,0.5],[1,0.5]];portConstraint=eastwest;whiteSpace=wrap;html=1;labelBackgroundColor=none;" vertex="1" parent="VwYss1m0N9UJA2sbbODR-21">
          <mxGeometry y="40" width="160" height="30" as="geometry" />
        </mxCell>
        <mxCell id="VwYss1m0N9UJA2sbbODR-23" value="" style="line;strokeWidth=1;fillColor=none;align=left;verticalAlign=middle;spacingTop=-1;spacingLeft=3;spacingRight=3;rotatable=0;labelPosition=right;points=[];portConstraint=eastwest;labelBackgroundColor=none;" vertex="1" parent="VwYss1m0N9UJA2sbbODR-21">
          <mxGeometry y="70" width="160" height="8" as="geometry" />
        </mxCell>
        <mxCell id="VwYss1m0N9UJA2sbbODR-24" value="&lt;div&gt;+Motor(&lt;span style=&quot;background-color: initial;&quot;&gt;)&lt;/span&gt;&lt;/div&gt;+encenderMotor(): void&lt;div&gt;+apagarMotor(): void&lt;/div&gt;" style="text;strokeColor=none;fillColor=none;align=left;verticalAlign=top;spacingLeft=4;spacingRight=4;overflow=hidden;rotatable=0;points=[[0,0.5],[1,0.5]];portConstraint=eastwest;whiteSpace=wrap;html=1;labelBackgroundColor=none;" vertex="1" parent="VwYss1m0N9UJA2sbbODR-21">
          <mxGeometry y="78" width="160" height="52" as="geometry" />
        </mxCell>
        <mxCell id="VwYss1m0N9UJA2sbbODR-25" value="MotorMil" style="swimlane;fontStyle=1;align=center;verticalAlign=top;childLayout=stackLayout;horizontal=1;startSize=26;horizontalStack=0;resizeParent=1;resizeParentMax=0;resizeLast=0;collapsible=1;marginBottom=0;whiteSpace=wrap;html=1;labelBackgroundColor=none;" vertex="1" parent="1">
          <mxGeometry x="-580" y="490" width="160" height="60" as="geometry" />
        </mxCell>
        <mxCell id="VwYss1m0N9UJA2sbbODR-26" value="&lt;u&gt;-velocidadMax:double&lt;/u&gt;" style="text;strokeColor=none;fillColor=none;align=left;verticalAlign=top;spacingLeft=4;spacingRight=4;overflow=hidden;rotatable=0;points=[[0,0.5],[1,0.5]];portConstraint=eastwest;whiteSpace=wrap;html=1;labelBackgroundColor=none;" vertex="1" parent="VwYss1m0N9UJA2sbbODR-25">
          <mxGeometry y="26" width="160" height="26" as="geometry" />
        </mxCell>
        <mxCell id="VwYss1m0N9UJA2sbbODR-27" value="" style="line;strokeWidth=1;fillColor=none;align=left;verticalAlign=middle;spacingTop=-1;spacingLeft=3;spacingRight=3;rotatable=0;labelPosition=right;points=[];portConstraint=eastwest;labelBackgroundColor=none;" vertex="1" parent="VwYss1m0N9UJA2sbbODR-25">
          <mxGeometry y="52" width="160" height="8" as="geometry" />
        </mxCell>
        <mxCell id="VwYss1m0N9UJA2sbbODR-29" value="MotorDosMil" style="swimlane;fontStyle=1;align=center;verticalAlign=top;childLayout=stackLayout;horizontal=1;startSize=26;horizontalStack=0;resizeParent=1;resizeParentMax=0;resizeLast=0;collapsible=1;marginBottom=0;whiteSpace=wrap;html=1;labelBackgroundColor=none;" vertex="1" parent="1">
          <mxGeometry x="-397" y="490" width="160" height="60" as="geometry" />
        </mxCell>
        <mxCell id="VwYss1m0N9UJA2sbbODR-30" value="&lt;u&gt;-velocidadMax:double&lt;/u&gt;" style="text;strokeColor=none;fillColor=none;align=left;verticalAlign=top;spacingLeft=4;spacingRight=4;overflow=hidden;rotatable=0;points=[[0,0.5],[1,0.5]];portConstraint=eastwest;whiteSpace=wrap;html=1;labelBackgroundColor=none;" vertex="1" parent="VwYss1m0N9UJA2sbbODR-29">
          <mxGeometry y="26" width="160" height="26" as="geometry" />
        </mxCell>
        <mxCell id="VwYss1m0N9UJA2sbbODR-31" value="" style="line;strokeWidth=1;fillColor=none;align=left;verticalAlign=middle;spacingTop=-1;spacingLeft=3;spacingRight=3;rotatable=0;labelPosition=right;points=[];portConstraint=eastwest;labelBackgroundColor=none;" vertex="1" parent="VwYss1m0N9UJA2sbbODR-29">
          <mxGeometry y="52" width="160" height="8" as="geometry" />
        </mxCell>
        <mxCell id="VwYss1m0N9UJA2sbbODR-33" value="MotorTresMil" style="swimlane;fontStyle=1;align=center;verticalAlign=top;childLayout=stackLayout;horizontal=1;startSize=26;horizontalStack=0;resizeParent=1;resizeParentMax=0;resizeLast=0;collapsible=1;marginBottom=0;whiteSpace=wrap;html=1;labelBackgroundColor=none;" vertex="1" parent="1">
          <mxGeometry x="-200" y="490" width="160" height="60" as="geometry" />
        </mxCell>
        <mxCell id="VwYss1m0N9UJA2sbbODR-34" value="&lt;u&gt;-velocidadMax:double&lt;/u&gt;" style="text;strokeColor=none;fillColor=none;align=left;verticalAlign=top;spacingLeft=4;spacingRight=4;overflow=hidden;rotatable=0;points=[[0,0.5],[1,0.5]];portConstraint=eastwest;whiteSpace=wrap;html=1;labelBackgroundColor=none;" vertex="1" parent="VwYss1m0N9UJA2sbbODR-33">
          <mxGeometry y="26" width="160" height="26" as="geometry" />
        </mxCell>
        <mxCell id="VwYss1m0N9UJA2sbbODR-35" value="" style="line;strokeWidth=1;fillColor=none;align=left;verticalAlign=middle;spacingTop=-1;spacingLeft=3;spacingRight=3;rotatable=0;labelPosition=right;points=[];portConstraint=eastwest;labelBackgroundColor=none;" vertex="1" parent="VwYss1m0N9UJA2sbbODR-33">
          <mxGeometry y="52" width="160" height="8" as="geometry" />
        </mxCell>
        <mxCell id="VwYss1m0N9UJA2sbbODR-37" value="" style="endArrow=block;endFill=1;endSize=12;html=1;rounded=0;entryX=-0.012;entryY=1.298;entryDx=0;entryDy=0;entryPerimeter=0;exitX=0.5;exitY=0;exitDx=0;exitDy=0;labelBackgroundColor=none;fontColor=default;" edge="1" parent="1" source="VwYss1m0N9UJA2sbbODR-9">
          <mxGeometry width="160" relative="1" as="geometry">
            <mxPoint x="10" y="320" as="sourcePoint" />
            <mxPoint x="227.96000000000004" y="281.15200000000004" as="targetPoint" />
          </mxGeometry>
        </mxCell>
        <mxCell id="VwYss1m0N9UJA2sbbODR-38" value="" style="endArrow=block;endFill=1;endSize=12;html=1;rounded=0;exitX=0.5;exitY=0;exitDx=0;exitDy=0;entryX=0.5;entryY=1;entryDx=0;entryDy=0;labelBackgroundColor=none;fontColor=default;" edge="1" parent="1" source="VwYss1m0N9UJA2sbbODR-17" target="VwYss1m0N9UJA2sbbODR-5">
          <mxGeometry width="160" relative="1" as="geometry">
            <mxPoint x="320" y="470" as="sourcePoint" />
            <mxPoint x="316.52999999999975" y="310.16999999999996" as="targetPoint" />
          </mxGeometry>
        </mxCell>
        <mxCell id="VwYss1m0N9UJA2sbbODR-39" value="" style="endArrow=block;endFill=1;endSize=12;html=1;rounded=0;exitX=0.5;exitY=0;exitDx=0;exitDy=0;labelBackgroundColor=none;fontColor=default;" edge="1" parent="1" source="VwYss1m0N9UJA2sbbODR-13">
          <mxGeometry width="160" relative="1" as="geometry">
            <mxPoint x="460" y="400" as="sourcePoint" />
            <mxPoint x="370" y="280" as="targetPoint" />
          </mxGeometry>
        </mxCell>
        <mxCell id="VwYss1m0N9UJA2sbbODR-40" value="" style="endArrow=block;endFill=1;endSize=12;html=1;rounded=0;entryX=0.475;entryY=1.02;entryDx=0;entryDy=0;entryPerimeter=0;exitX=0.5;exitY=0;exitDx=0;exitDy=0;labelBackgroundColor=none;fontColor=default;" edge="1" parent="1" source="VwYss1m0N9UJA2sbbODR-29" target="VwYss1m0N9UJA2sbbODR-24">
          <mxGeometry width="160" relative="1" as="geometry">
            <mxPoint x="-320" y="490" as="sourcePoint" />
            <mxPoint x="-182" y="317" as="targetPoint" />
          </mxGeometry>
        </mxCell>
        <mxCell id="VwYss1m0N9UJA2sbbODR-41" value="" style="endArrow=block;endFill=1;endSize=12;html=1;rounded=0;entryX=-0.004;entryY=-0.113;entryDx=0;entryDy=0;entryPerimeter=0;exitX=0.5;exitY=0;exitDx=0;exitDy=0;labelBackgroundColor=none;fontColor=default;" edge="1" parent="1" source="VwYss1m0N9UJA2sbbODR-25" target="VwYss1m0N9UJA2sbbODR-24">
          <mxGeometry width="160" relative="1" as="geometry">
            <mxPoint x="-535" y="490" as="sourcePoint" />
            <mxPoint x="-397" y="317" as="targetPoint" />
          </mxGeometry>
        </mxCell>
        <mxCell id="VwYss1m0N9UJA2sbbODR-42" value="" style="endArrow=block;endFill=1;endSize=12;html=1;rounded=0;entryX=1;entryY=0.5;entryDx=0;entryDy=0;exitX=0.5;exitY=0;exitDx=0;exitDy=0;labelBackgroundColor=none;fontColor=default;" edge="1" parent="1" source="VwYss1m0N9UJA2sbbODR-33" target="VwYss1m0N9UJA2sbbODR-22">
          <mxGeometry width="160" relative="1" as="geometry">
            <mxPoint x="-120" y="490" as="sourcePoint" />
            <mxPoint x="18" y="317" as="targetPoint" />
          </mxGeometry>
        </mxCell>
        <mxCell id="VwYss1m0N9UJA2sbbODR-43" value="" style="endArrow=diamondThin;endFill=1;endSize=24;html=1;rounded=0;entryX=0;entryY=0.5;entryDx=0;entryDy=0;exitX=0.5;exitY=0;exitDx=0;exitDy=0;labelBackgroundColor=none;fontColor=default;" edge="1" parent="1" source="VwYss1m0N9UJA2sbbODR-21" target="VwYss1m0N9UJA2sbbODR-2">
          <mxGeometry width="160" relative="1" as="geometry">
            <mxPoint x="-430" y="140" as="sourcePoint" />
            <mxPoint x="-270" y="140" as="targetPoint" />
            <Array as="points">
              <mxPoint x="-317" y="88" />
            </Array>
          </mxGeometry>
        </mxCell>
        <mxCell id="VwYss1m0N9UJA2sbbODR-44" value="" style="endArrow=diamondThin;endFill=1;endSize=24;html=1;rounded=0;exitX=0.5;exitY=0;exitDx=0;exitDy=0;entryX=1;entryY=0.5;entryDx=0;entryDy=0;labelBackgroundColor=none;fontColor=default;" edge="1" parent="1" source="VwYss1m0N9UJA2sbbODR-5" target="VwYss1m0N9UJA2sbbODR-2">
          <mxGeometry width="160" relative="1" as="geometry">
            <mxPoint x="320" y="200" as="sourcePoint" />
            <mxPoint x="480" y="200" as="targetPoint" />
            <Array as="points">
              <mxPoint x="320" y="88" />
            </Array>
          </mxGeometry>
        </mxCell>
        <mxCell id="VwYss1m0N9UJA2sbbODR-57" value="VehiculoEncendidoException" style="swimlane;fontStyle=1;align=center;verticalAlign=top;childLayout=stackLayout;horizontal=1;startSize=26;horizontalStack=0;resizeParent=1;resizeParentMax=0;resizeLast=0;collapsible=1;marginBottom=0;whiteSpace=wrap;html=1;labelBackgroundColor=none;" vertex="1" parent="1">
          <mxGeometry x="-1770" y="322" width="170" height="86" as="geometry" />
        </mxCell>
        <mxCell id="VwYss1m0N9UJA2sbbODR-58" value="+ field: type" style="text;strokeColor=none;fillColor=none;align=left;verticalAlign=top;spacingLeft=4;spacingRight=4;overflow=hidden;rotatable=0;points=[[0,0.5],[1,0.5]];portConstraint=eastwest;whiteSpace=wrap;html=1;labelBackgroundColor=none;" vertex="1" parent="VwYss1m0N9UJA2sbbODR-57">
          <mxGeometry y="26" width="170" height="26" as="geometry" />
        </mxCell>
        <mxCell id="VwYss1m0N9UJA2sbbODR-59" value="" style="line;strokeWidth=1;fillColor=none;align=left;verticalAlign=middle;spacingTop=-1;spacingLeft=3;spacingRight=3;rotatable=0;labelPosition=right;points=[];portConstraint=eastwest;labelBackgroundColor=none;" vertex="1" parent="VwYss1m0N9UJA2sbbODR-57">
          <mxGeometry y="52" width="170" height="8" as="geometry" />
        </mxCell>
        <mxCell id="VwYss1m0N9UJA2sbbODR-60" value="+ method(type): type" style="text;strokeColor=none;fillColor=none;align=left;verticalAlign=top;spacingLeft=4;spacingRight=4;overflow=hidden;rotatable=0;points=[[0,0.5],[1,0.5]];portConstraint=eastwest;whiteSpace=wrap;html=1;labelBackgroundColor=none;" vertex="1" parent="VwYss1m0N9UJA2sbbODR-57">
          <mxGeometry y="60" width="170" height="26" as="geometry" />
        </mxCell>
        <mxCell id="VwYss1m0N9UJA2sbbODR-69" value="VehiculoFrenadoBruscoException" style="swimlane;fontStyle=1;align=center;verticalAlign=top;childLayout=stackLayout;horizontal=1;startSize=26;horizontalStack=0;resizeParent=1;resizeParentMax=0;resizeLast=0;collapsible=1;marginBottom=0;whiteSpace=wrap;html=1;labelBackgroundColor=none;" vertex="1" parent="1">
          <mxGeometry x="-990" y="520" width="210" height="86" as="geometry" />
        </mxCell>
        <mxCell id="VwYss1m0N9UJA2sbbODR-70" value="+ field: type" style="text;strokeColor=none;fillColor=none;align=left;verticalAlign=top;spacingLeft=4;spacingRight=4;overflow=hidden;rotatable=0;points=[[0,0.5],[1,0.5]];portConstraint=eastwest;whiteSpace=wrap;html=1;labelBackgroundColor=none;" vertex="1" parent="VwYss1m0N9UJA2sbbODR-69">
          <mxGeometry y="26" width="210" height="26" as="geometry" />
        </mxCell>
        <mxCell id="VwYss1m0N9UJA2sbbODR-71" value="" style="line;strokeWidth=1;fillColor=none;align=left;verticalAlign=middle;spacingTop=-1;spacingLeft=3;spacingRight=3;rotatable=0;labelPosition=right;points=[];portConstraint=eastwest;labelBackgroundColor=none;" vertex="1" parent="VwYss1m0N9UJA2sbbODR-69">
          <mxGeometry y="52" width="210" height="8" as="geometry" />
        </mxCell>
        <mxCell id="VwYss1m0N9UJA2sbbODR-72" value="+ method(type): type" style="text;strokeColor=none;fillColor=none;align=left;verticalAlign=top;spacingLeft=4;spacingRight=4;overflow=hidden;rotatable=0;points=[[0,0.5],[1,0.5]];portConstraint=eastwest;whiteSpace=wrap;html=1;labelBackgroundColor=none;" vertex="1" parent="VwYss1m0N9UJA2sbbODR-69">
          <mxGeometry y="60" width="210" height="26" as="geometry" />
        </mxCell>
        <mxCell id="VwYss1m0N9UJA2sbbODR-73" value="VehiculoDatenidoException" style="swimlane;fontStyle=1;align=center;verticalAlign=top;childLayout=stackLayout;horizontal=1;startSize=26;horizontalStack=0;resizeParent=1;resizeParentMax=0;resizeLast=0;collapsible=1;marginBottom=0;whiteSpace=wrap;html=1;labelBackgroundColor=none;" vertex="1" parent="1">
          <mxGeometry x="-1980" y="422" width="170" height="86" as="geometry" />
        </mxCell>
        <mxCell id="VwYss1m0N9UJA2sbbODR-74" value="+ field: type" style="text;strokeColor=none;fillColor=none;align=left;verticalAlign=top;spacingLeft=4;spacingRight=4;overflow=hidden;rotatable=0;points=[[0,0.5],[1,0.5]];portConstraint=eastwest;whiteSpace=wrap;html=1;labelBackgroundColor=none;" vertex="1" parent="VwYss1m0N9UJA2sbbODR-73">
          <mxGeometry y="26" width="170" height="26" as="geometry" />
        </mxCell>
        <mxCell id="VwYss1m0N9UJA2sbbODR-75" value="" style="line;strokeWidth=1;fillColor=none;align=left;verticalAlign=middle;spacingTop=-1;spacingLeft=3;spacingRight=3;rotatable=0;labelPosition=right;points=[];portConstraint=eastwest;labelBackgroundColor=none;" vertex="1" parent="VwYss1m0N9UJA2sbbODR-73">
          <mxGeometry y="52" width="170" height="8" as="geometry" />
        </mxCell>
        <mxCell id="VwYss1m0N9UJA2sbbODR-76" value="+ method(type): type" style="text;strokeColor=none;fillColor=none;align=left;verticalAlign=top;spacingLeft=4;spacingRight=4;overflow=hidden;rotatable=0;points=[[0,0.5],[1,0.5]];portConstraint=eastwest;whiteSpace=wrap;html=1;labelBackgroundColor=none;" vertex="1" parent="VwYss1m0N9UJA2sbbODR-73">
          <mxGeometry y="60" width="170" height="26" as="geometry" />
        </mxCell>
        <mxCell id="VwYss1m0N9UJA2sbbODR-77" value="VehiculoApagadoException" style="swimlane;fontStyle=1;align=center;verticalAlign=top;childLayout=stackLayout;horizontal=1;startSize=26;horizontalStack=0;resizeParent=1;resizeParentMax=0;resizeLast=0;collapsible=1;marginBottom=0;whiteSpace=wrap;html=1;labelBackgroundColor=none;" vertex="1" parent="1">
          <mxGeometry x="-1550" y="320" width="170" height="86" as="geometry" />
        </mxCell>
        <mxCell id="VwYss1m0N9UJA2sbbODR-78" value="+ field: type" style="text;strokeColor=none;fillColor=none;align=left;verticalAlign=top;spacingLeft=4;spacingRight=4;overflow=hidden;rotatable=0;points=[[0,0.5],[1,0.5]];portConstraint=eastwest;whiteSpace=wrap;html=1;labelBackgroundColor=none;" vertex="1" parent="VwYss1m0N9UJA2sbbODR-77">
          <mxGeometry y="26" width="170" height="26" as="geometry" />
        </mxCell>
        <mxCell id="VwYss1m0N9UJA2sbbODR-79" value="" style="line;strokeWidth=1;fillColor=none;align=left;verticalAlign=middle;spacingTop=-1;spacingLeft=3;spacingRight=3;rotatable=0;labelPosition=right;points=[];portConstraint=eastwest;labelBackgroundColor=none;" vertex="1" parent="VwYss1m0N9UJA2sbbODR-77">
          <mxGeometry y="52" width="170" height="8" as="geometry" />
        </mxCell>
        <mxCell id="VwYss1m0N9UJA2sbbODR-80" value="+ method(type): type" style="text;strokeColor=none;fillColor=none;align=left;verticalAlign=top;spacingLeft=4;spacingRight=4;overflow=hidden;rotatable=0;points=[[0,0.5],[1,0.5]];portConstraint=eastwest;whiteSpace=wrap;html=1;labelBackgroundColor=none;" vertex="1" parent="VwYss1m0N9UJA2sbbODR-77">
          <mxGeometry y="60" width="170" height="26" as="geometry" />
        </mxCell>
        <mxCell id="VwYss1m0N9UJA2sbbODR-81" value="VehiculoApagadoAccionException" style="swimlane;fontStyle=1;align=center;verticalAlign=top;childLayout=stackLayout;horizontal=1;startSize=26;horizontalStack=0;resizeParent=1;resizeParentMax=0;resizeLast=0;collapsible=1;marginBottom=0;whiteSpace=wrap;html=1;labelBackgroundColor=none;" vertex="1" parent="1">
          <mxGeometry x="-1340" y="322" width="210" height="86" as="geometry" />
        </mxCell>
        <mxCell id="VwYss1m0N9UJA2sbbODR-82" value="+ field: type" style="text;strokeColor=none;fillColor=none;align=left;verticalAlign=top;spacingLeft=4;spacingRight=4;overflow=hidden;rotatable=0;points=[[0,0.5],[1,0.5]];portConstraint=eastwest;whiteSpace=wrap;html=1;labelBackgroundColor=none;" vertex="1" parent="VwYss1m0N9UJA2sbbODR-81">
          <mxGeometry y="26" width="210" height="26" as="geometry" />
        </mxCell>
        <mxCell id="VwYss1m0N9UJA2sbbODR-83" value="" style="line;strokeWidth=1;fillColor=none;align=left;verticalAlign=middle;spacingTop=-1;spacingLeft=3;spacingRight=3;rotatable=0;labelPosition=right;points=[];portConstraint=eastwest;labelBackgroundColor=none;" vertex="1" parent="VwYss1m0N9UJA2sbbODR-81">
          <mxGeometry y="52" width="210" height="8" as="geometry" />
        </mxCell>
        <mxCell id="VwYss1m0N9UJA2sbbODR-84" value="+ method(type): type" style="text;strokeColor=none;fillColor=none;align=left;verticalAlign=top;spacingLeft=4;spacingRight=4;overflow=hidden;rotatable=0;points=[[0,0.5],[1,0.5]];portConstraint=eastwest;whiteSpace=wrap;html=1;labelBackgroundColor=none;" vertex="1" parent="VwYss1m0N9UJA2sbbODR-81">
          <mxGeometry y="60" width="210" height="26" as="geometry" />
        </mxCell>
        <mxCell id="VwYss1m0N9UJA2sbbODR-86" value="VehiculoFrenoVelocidadException" style="swimlane;fontStyle=1;align=center;verticalAlign=top;childLayout=stackLayout;horizontal=1;startSize=26;horizontalStack=0;resizeParent=1;resizeParentMax=0;resizeLast=0;collapsible=1;marginBottom=0;whiteSpace=wrap;html=1;labelBackgroundColor=none;" vertex="1" parent="1">
          <mxGeometry x="-1080" y="370" width="210" height="82" as="geometry" />
        </mxCell>
        <mxCell id="VwYss1m0N9UJA2sbbODR-87" value="+ field: type" style="text;strokeColor=none;fillColor=none;align=left;verticalAlign=top;spacingLeft=4;spacingRight=4;overflow=hidden;rotatable=0;points=[[0,0.5],[1,0.5]];portConstraint=eastwest;whiteSpace=wrap;html=1;labelBackgroundColor=none;" vertex="1" parent="VwYss1m0N9UJA2sbbODR-86">
          <mxGeometry y="26" width="210" height="22" as="geometry" />
        </mxCell>
        <mxCell id="VwYss1m0N9UJA2sbbODR-88" value="" style="line;strokeWidth=1;fillColor=none;align=left;verticalAlign=middle;spacingTop=-1;spacingLeft=3;spacingRight=3;rotatable=0;labelPosition=right;points=[];portConstraint=eastwest;labelBackgroundColor=none;" vertex="1" parent="VwYss1m0N9UJA2sbbODR-86">
          <mxGeometry y="48" width="210" height="8" as="geometry" />
        </mxCell>
        <mxCell id="VwYss1m0N9UJA2sbbODR-89" value="+ method(type): type" style="text;strokeColor=none;fillColor=none;align=left;verticalAlign=top;spacingLeft=4;spacingRight=4;overflow=hidden;rotatable=0;points=[[0,0.5],[1,0.5]];portConstraint=eastwest;whiteSpace=wrap;html=1;labelBackgroundColor=none;" vertex="1" parent="VwYss1m0N9UJA2sbbODR-86">
          <mxGeometry y="56" width="210" height="26" as="geometry" />
        </mxCell>
        <mxCell id="VwYss1m0N9UJA2sbbODR-94" value="VehiculoApagadoVelocidadException" style="swimlane;fontStyle=1;align=center;verticalAlign=top;childLayout=stackLayout;horizontal=1;startSize=26;horizontalStack=0;resizeParent=1;resizeParentMax=0;resizeLast=0;collapsible=1;marginBottom=0;whiteSpace=wrap;html=1;labelBackgroundColor=none;" vertex="1" parent="1">
          <mxGeometry x="-1970" y="672" width="240" height="82" as="geometry" />
        </mxCell>
        <mxCell id="VwYss1m0N9UJA2sbbODR-95" value="+ field: type" style="text;strokeColor=none;fillColor=none;align=left;verticalAlign=top;spacingLeft=4;spacingRight=4;overflow=hidden;rotatable=0;points=[[0,0.5],[1,0.5]];portConstraint=eastwest;whiteSpace=wrap;html=1;labelBackgroundColor=none;" vertex="1" parent="VwYss1m0N9UJA2sbbODR-94">
          <mxGeometry y="26" width="240" height="22" as="geometry" />
        </mxCell>
        <mxCell id="VwYss1m0N9UJA2sbbODR-96" value="" style="line;strokeWidth=1;fillColor=none;align=left;verticalAlign=middle;spacingTop=-1;spacingLeft=3;spacingRight=3;rotatable=0;labelPosition=right;points=[];portConstraint=eastwest;labelBackgroundColor=none;" vertex="1" parent="VwYss1m0N9UJA2sbbODR-94">
          <mxGeometry y="48" width="240" height="8" as="geometry" />
        </mxCell>
        <mxCell id="VwYss1m0N9UJA2sbbODR-97" value="+ method(type): type" style="text;strokeColor=none;fillColor=none;align=left;verticalAlign=top;spacingLeft=4;spacingRight=4;overflow=hidden;rotatable=0;points=[[0,0.5],[1,0.5]];portConstraint=eastwest;whiteSpace=wrap;html=1;labelBackgroundColor=none;" vertex="1" parent="VwYss1m0N9UJA2sbbODR-94">
          <mxGeometry y="56" width="240" height="26" as="geometry" />
        </mxCell>
        <mxCell id="VwYss1m0N9UJA2sbbODR-102" value="VehiculoAceleradoException" style="swimlane;fontStyle=1;align=center;verticalAlign=top;childLayout=stackLayout;horizontal=1;startSize=26;horizontalStack=0;resizeParent=1;resizeParentMax=0;resizeLast=0;collapsible=1;marginBottom=0;whiteSpace=wrap;html=1;labelBackgroundColor=none;" vertex="1" parent="1">
          <mxGeometry x="-1340" y="812" width="210" height="82" as="geometry" />
        </mxCell>
        <mxCell id="VwYss1m0N9UJA2sbbODR-103" value="+ field: type" style="text;strokeColor=none;fillColor=none;align=left;verticalAlign=top;spacingLeft=4;spacingRight=4;overflow=hidden;rotatable=0;points=[[0,0.5],[1,0.5]];portConstraint=eastwest;whiteSpace=wrap;html=1;labelBackgroundColor=none;" vertex="1" parent="VwYss1m0N9UJA2sbbODR-102">
          <mxGeometry y="26" width="210" height="22" as="geometry" />
        </mxCell>
        <mxCell id="VwYss1m0N9UJA2sbbODR-104" value="" style="line;strokeWidth=1;fillColor=none;align=left;verticalAlign=middle;spacingTop=-1;spacingLeft=3;spacingRight=3;rotatable=0;labelPosition=right;points=[];portConstraint=eastwest;labelBackgroundColor=none;" vertex="1" parent="VwYss1m0N9UJA2sbbODR-102">
          <mxGeometry y="48" width="210" height="8" as="geometry" />
        </mxCell>
        <mxCell id="VwYss1m0N9UJA2sbbODR-105" value="+ method(type): type" style="text;strokeColor=none;fillColor=none;align=left;verticalAlign=top;spacingLeft=4;spacingRight=4;overflow=hidden;rotatable=0;points=[[0,0.5],[1,0.5]];portConstraint=eastwest;whiteSpace=wrap;html=1;labelBackgroundColor=none;" vertex="1" parent="VwYss1m0N9UJA2sbbODR-102">
          <mxGeometry y="56" width="210" height="26" as="geometry" />
        </mxCell>
        <mxCell id="VwYss1m0N9UJA2sbbODR-110" value="VehiculoPtinaException" style="swimlane;fontStyle=1;align=center;verticalAlign=top;childLayout=stackLayout;horizontal=1;startSize=26;horizontalStack=0;resizeParent=1;resizeParentMax=0;resizeLast=0;collapsible=1;marginBottom=0;whiteSpace=wrap;html=1;labelBackgroundColor=none;" vertex="1" parent="1">
          <mxGeometry x="-1110" y="672" width="210" height="82" as="geometry" />
        </mxCell>
        <mxCell id="VwYss1m0N9UJA2sbbODR-111" value="+ field: type" style="text;strokeColor=none;fillColor=none;align=left;verticalAlign=top;spacingLeft=4;spacingRight=4;overflow=hidden;rotatable=0;points=[[0,0.5],[1,0.5]];portConstraint=eastwest;whiteSpace=wrap;html=1;labelBackgroundColor=none;" vertex="1" parent="VwYss1m0N9UJA2sbbODR-110">
          <mxGeometry y="26" width="210" height="22" as="geometry" />
        </mxCell>
        <mxCell id="VwYss1m0N9UJA2sbbODR-112" value="" style="line;strokeWidth=1;fillColor=none;align=left;verticalAlign=middle;spacingTop=-1;spacingLeft=3;spacingRight=3;rotatable=0;labelPosition=right;points=[];portConstraint=eastwest;labelBackgroundColor=none;" vertex="1" parent="VwYss1m0N9UJA2sbbODR-110">
          <mxGeometry y="48" width="210" height="8" as="geometry" />
        </mxCell>
        <mxCell id="VwYss1m0N9UJA2sbbODR-113" value="+ method(type): type" style="text;strokeColor=none;fillColor=none;align=left;verticalAlign=top;spacingLeft=4;spacingRight=4;overflow=hidden;rotatable=0;points=[[0,0.5],[1,0.5]];portConstraint=eastwest;whiteSpace=wrap;html=1;labelBackgroundColor=none;" vertex="1" parent="VwYss1m0N9UJA2sbbODR-110">
          <mxGeometry y="56" width="210" height="26" as="geometry" />
        </mxCell>
        <mxCell id="VwYss1m0N9UJA2sbbODR-114" value="VehiculoAccidentadoException" style="swimlane;fontStyle=1;align=center;verticalAlign=top;childLayout=stackLayout;horizontal=1;startSize=26;horizontalStack=0;resizeParent=1;resizeParentMax=0;resizeLast=0;collapsible=1;marginBottom=0;whiteSpace=wrap;html=1;labelBackgroundColor=none;" vertex="1" parent="1">
          <mxGeometry x="-1660" y="822" width="210" height="82" as="geometry" />
        </mxCell>
        <mxCell id="VwYss1m0N9UJA2sbbODR-115" value="+ field: type" style="text;strokeColor=none;fillColor=none;align=left;verticalAlign=top;spacingLeft=4;spacingRight=4;overflow=hidden;rotatable=0;points=[[0,0.5],[1,0.5]];portConstraint=eastwest;whiteSpace=wrap;html=1;labelBackgroundColor=none;" vertex="1" parent="VwYss1m0N9UJA2sbbODR-114">
          <mxGeometry y="26" width="210" height="22" as="geometry" />
        </mxCell>
        <mxCell id="VwYss1m0N9UJA2sbbODR-116" value="" style="line;strokeWidth=1;fillColor=none;align=left;verticalAlign=middle;spacingTop=-1;spacingLeft=3;spacingRight=3;rotatable=0;labelPosition=right;points=[];portConstraint=eastwest;labelBackgroundColor=none;" vertex="1" parent="VwYss1m0N9UJA2sbbODR-114">
          <mxGeometry y="48" width="210" height="8" as="geometry" />
        </mxCell>
        <mxCell id="VwYss1m0N9UJA2sbbODR-117" value="+ method(type): type" style="text;strokeColor=none;fillColor=none;align=left;verticalAlign=top;spacingLeft=4;spacingRight=4;overflow=hidden;rotatable=0;points=[[0,0.5],[1,0.5]];portConstraint=eastwest;whiteSpace=wrap;html=1;labelBackgroundColor=none;" vertex="1" parent="VwYss1m0N9UJA2sbbODR-114">
          <mxGeometry y="56" width="210" height="26" as="geometry" />
        </mxCell>
        <mxCell id="VwYss1m0N9UJA2sbbODR-118" value="RuntimeException" style="swimlane;fontStyle=1;align=center;verticalAlign=top;childLayout=stackLayout;horizontal=1;startSize=26;horizontalStack=0;resizeParent=1;resizeParentMax=0;resizeLast=0;collapsible=1;marginBottom=0;whiteSpace=wrap;html=1;labelBackgroundColor=none;" vertex="1" parent="1">
          <mxGeometry x="-1500" y="531" width="160" height="86" as="geometry" />
        </mxCell>
        <mxCell id="VwYss1m0N9UJA2sbbODR-119" value="+ field: type" style="text;strokeColor=none;fillColor=none;align=left;verticalAlign=top;spacingLeft=4;spacingRight=4;overflow=hidden;rotatable=0;points=[[0,0.5],[1,0.5]];portConstraint=eastwest;whiteSpace=wrap;html=1;labelBackgroundColor=none;" vertex="1" parent="VwYss1m0N9UJA2sbbODR-118">
          <mxGeometry y="26" width="160" height="26" as="geometry" />
        </mxCell>
        <mxCell id="VwYss1m0N9UJA2sbbODR-120" value="" style="line;strokeWidth=1;fillColor=none;align=left;verticalAlign=middle;spacingTop=-1;spacingLeft=3;spacingRight=3;rotatable=0;labelPosition=right;points=[];portConstraint=eastwest;labelBackgroundColor=none;" vertex="1" parent="VwYss1m0N9UJA2sbbODR-118">
          <mxGeometry y="52" width="160" height="8" as="geometry" />
        </mxCell>
        <mxCell id="VwYss1m0N9UJA2sbbODR-121" value="+ method(type): type" style="text;strokeColor=none;fillColor=none;align=left;verticalAlign=top;spacingLeft=4;spacingRight=4;overflow=hidden;rotatable=0;points=[[0,0.5],[1,0.5]];portConstraint=eastwest;whiteSpace=wrap;html=1;labelBackgroundColor=none;" vertex="1" parent="VwYss1m0N9UJA2sbbODR-118">
          <mxGeometry y="60" width="160" height="26" as="geometry" />
        </mxCell>
        <mxCell id="VwYss1m0N9UJA2sbbODR-122" value="" style="endArrow=none;startArrow=block;endFill=0;startFill=1;html=1;rounded=0;entryX=0.5;entryY=1;entryDx=0;entryDy=0;labelBackgroundColor=none;fontColor=default;" edge="1" parent="1" target="VwYss1m0N9UJA2sbbODR-77">
          <mxGeometry width="160" relative="1" as="geometry">
            <mxPoint x="-1420" y="530" as="sourcePoint" />
            <mxPoint x="-1420" y="480" as="targetPoint" />
          </mxGeometry>
        </mxCell>
        <mxCell id="VwYss1m0N9UJA2sbbODR-128" value="" style="endArrow=none;startArrow=block;endFill=0;startFill=1;html=1;rounded=0;entryX=1;entryY=0.5;entryDx=0;entryDy=0;exitX=0;exitY=0.875;exitDx=0;exitDy=0;exitPerimeter=0;labelBackgroundColor=none;fontColor=default;" edge="1" parent="1" source="VwYss1m0N9UJA2sbbODR-120" target="VwYss1m0N9UJA2sbbODR-74">
          <mxGeometry width="160" relative="1" as="geometry">
            <mxPoint x="-1550" y="590" as="sourcePoint" />
            <mxPoint x="-1690" y="540" as="targetPoint" />
          </mxGeometry>
        </mxCell>
        <mxCell id="VwYss1m0N9UJA2sbbODR-129" value="" style="endArrow=none;startArrow=block;endFill=0;startFill=1;html=1;rounded=0;entryX=0.575;entryY=0.024;entryDx=0;entryDy=0;entryPerimeter=0;labelBackgroundColor=none;fontColor=default;" edge="1" parent="1" target="VwYss1m0N9UJA2sbbODR-102">
          <mxGeometry width="160" relative="1" as="geometry">
            <mxPoint x="-1370" y="620" as="sourcePoint" />
            <mxPoint x="-1300" y="651" as="targetPoint" />
          </mxGeometry>
        </mxCell>
        <mxCell id="VwYss1m0N9UJA2sbbODR-130" value="" style="endArrow=none;startArrow=block;endFill=0;startFill=1;html=1;rounded=0;entryX=0.5;entryY=1;entryDx=0;entryDy=0;exitX=0.188;exitY=1.115;exitDx=0;exitDy=0;exitPerimeter=0;labelBackgroundColor=none;fontColor=default;" edge="1" parent="1" source="VwYss1m0N9UJA2sbbODR-121">
          <mxGeometry width="160" relative="1" as="geometry">
            <mxPoint x="-1685" y="844" as="sourcePoint" />
            <mxPoint x="-1730" y="720" as="targetPoint" />
          </mxGeometry>
        </mxCell>
        <mxCell id="VwYss1m0N9UJA2sbbODR-131" value="" style="endArrow=none;startArrow=block;endFill=0;startFill=1;html=1;rounded=0;entryX=0.5;entryY=0;entryDx=0;entryDy=0;exitX=0.5;exitY=1;exitDx=0;exitDy=0;labelBackgroundColor=none;fontColor=default;" edge="1" parent="1" source="VwYss1m0N9UJA2sbbODR-118" target="VwYss1m0N9UJA2sbbODR-114">
          <mxGeometry width="160" relative="1" as="geometry">
            <mxPoint x="-1425" y="812" as="sourcePoint" />
            <mxPoint x="-1470" y="688" as="targetPoint" />
          </mxGeometry>
        </mxCell>
        <mxCell id="VwYss1m0N9UJA2sbbODR-132" value="" style="endArrow=none;startArrow=block;endFill=0;startFill=1;html=1;rounded=0;entryX=0.5;entryY=1;entryDx=0;entryDy=0;exitX=-0.012;exitY=0.698;exitDx=0;exitDy=0;exitPerimeter=0;labelBackgroundColor=none;fontColor=default;" edge="1" parent="1" source="VwYss1m0N9UJA2sbbODR-119">
          <mxGeometry width="160" relative="1" as="geometry">
            <mxPoint x="-1645" y="532" as="sourcePoint" />
            <mxPoint x="-1690" y="408" as="targetPoint" />
          </mxGeometry>
        </mxCell>
        <mxCell id="VwYss1m0N9UJA2sbbODR-133" value="" style="endArrow=none;startArrow=block;endFill=0;startFill=1;html=1;rounded=0;entryX=0.5;entryY=1;entryDx=0;entryDy=0;exitX=1;exitY=0.5;exitDx=0;exitDy=0;labelBackgroundColor=none;fontColor=default;" edge="1" parent="1" source="VwYss1m0N9UJA2sbbODR-119">
          <mxGeometry width="160" relative="1" as="geometry">
            <mxPoint x="-1196" y="531" as="sourcePoint" />
            <mxPoint x="-1241" y="407" as="targetPoint" />
          </mxGeometry>
        </mxCell>
        <mxCell id="VwYss1m0N9UJA2sbbODR-134" value="" style="endArrow=none;startArrow=block;endFill=0;startFill=1;html=1;rounded=0;entryX=0;entryY=0.5;entryDx=0;entryDy=0;exitX=1.006;exitY=0.074;exitDx=0;exitDy=0;exitPerimeter=0;labelBackgroundColor=none;fontColor=default;" edge="1" parent="1" source="VwYss1m0N9UJA2sbbODR-121" target="VwYss1m0N9UJA2sbbODR-70">
          <mxGeometry width="160" relative="1" as="geometry">
            <mxPoint x="-1130" y="672" as="sourcePoint" />
            <mxPoint x="-1175" y="548" as="targetPoint" />
          </mxGeometry>
        </mxCell>
        <mxCell id="VwYss1m0N9UJA2sbbODR-135" value="" style="endArrow=none;startArrow=block;endFill=0;startFill=1;html=1;rounded=0;entryX=0.5;entryY=1;entryDx=0;entryDy=0;exitX=1.01;exitY=0.972;exitDx=0;exitDy=0;exitPerimeter=0;labelBackgroundColor=none;fontColor=default;" edge="1" parent="1" source="VwYss1m0N9UJA2sbbODR-119">
          <mxGeometry width="160" relative="1" as="geometry">
            <mxPoint x="-1005" y="576" as="sourcePoint" />
            <mxPoint x="-1050" y="452" as="targetPoint" />
          </mxGeometry>
        </mxCell>
        <mxCell id="VwYss1m0N9UJA2sbbODR-136" value="" style="endArrow=none;startArrow=block;endFill=0;startFill=1;html=1;rounded=0;entryX=-0.01;entryY=0.88;entryDx=0;entryDy=0;entryPerimeter=0;exitX=0.999;exitY=0.963;exitDx=0;exitDy=0;exitPerimeter=0;labelBackgroundColor=none;fontColor=default;" edge="1" parent="1" source="VwYss1m0N9UJA2sbbODR-121" target="VwYss1m0N9UJA2sbbODR-111">
          <mxGeometry width="160" relative="1" as="geometry">
            <mxPoint x="-1198" y="774" as="sourcePoint" />
            <mxPoint x="-1283" y="630" as="targetPoint" />
          </mxGeometry>
        </mxCell>
      </root>
    </mxGraphModel>
  </diagram>
</mxfile>
